<svg xmlns="http://www.w3.org/2000/svg" viewBox="0 0 64 64">
  <defs>
    <linearGradient id="gradient" x1="0%" y1="0%" x2="100%" y2="100%">
      <stop offset="0%" stop-color="#3B82F6" />
      <stop offset="100%" stop-color="#1E40AF" />
    </linearGradient>
  </defs>
  <circle cx="32" cy="32" r="30" fill="url(#gradient)" />
  <g fill="white">
    <!-- 地球图标 -->
    <path d="M32 12c-11.05 0-20 8.95-20 20s8.95 20 20 20 20-8.95 20-20-8.95-20-20-20zm0 36c-8.84 0-16-7.16-16-16s7.16-16 16-16 16 7.16 16 16-7.16 16-16 16z" opacity="0.2" />
    <path d="M32 16c-8.84 0-16 7.16-16 16s7.16 16 16 16 16-7.16 16-16-7.16-16-16-16zm-1 4c2.67 0 5.33.67 7.67 2-1.33 2-3.33 3.33-5.67 4-1.33-2-2.67-4-4-6 .67 0 1.33 0 2 0zm-6 2c2 2.67 4 5.33 6 8-2.67.67-5.33.67-8 0 0-2.67.67-5.33 2-8zm16 10c0 2.67-.67 5.33-2 8-2-2.67-4-5.33-6-8 2.67-.67 5.33-.67 8 0zm-9 10c-2.67 0-5.33-.67-7.67-2 1.33-2 3.33-3.33 5.67-4 1.33 2 2.67 4 4 6-.67 0-1.33 0-2 0zm-6-18c-1.33 2.67-2 5.33-2 8-2.67 0-5.33-.67-8-2 1.33-2.67 3.33-4.67 6-6 1.33 0 2.67 0 4 0zm-4 12c2.67 1.33 5.33 2 8 2 0 2.67-.67 5.33-2 8-2.67-1.33-4.67-3.33-6-6 0-1.33 0-2.67 0-4zm20 4c-1.33 2.67-3.33 4.67-6 6-1.33 0-2.67 0-4 0 1.33-2.67 2-5.33 2-8 2.67 0 5.33-.67 8-2zm0-16c-2.67-1.33-5.33-2-8-2 0-2.67.67-5.33 2-8 2.67 1.33 4.67 3.33 6 6 0 1.33 0 2.67 0 4z" />
    <!-- 翻译符号 -->
    <path d="M26 38l-4 8h4l1-2h6l1 2h4l-4-8h-8zm4 2l1.5 3h-3l1.5-3z" />
  </g>
</svg> 